<svg width="57" height="56" viewBox="0 0 57 56" fill="none" xmlns="http://www.w3.org/2000/svg">
<path d="M56.0437 49.9978C56.0437 53.3608 47.6361 53.174 47.6361 53.174L24.1882 47.2887C22.5067 46.915 21.1988 45.1401 21.1988 43.2717V23.2803L56.0437 25.242V49.9978Z" fill="#5F6262"/>
<path d="M54.3622 10.575L53.0543 10.3882L46.5151 13.5644L45.5809 54.7617C50.9991 50.1842 56.0437 50.0908 56.0437 50.0908V14.2183C56.0437 12.7236 55.3898 11.4158 54.3622 10.575Z" fill="#343434"/>
<path d="M46.8887 51.025C46.8887 54.388 44.4599 56.5366 41.5639 55.8827L4.94409 46.9146C2.79548 46.3541 1.02054 43.645 1.02054 40.8424V10.6685L46.8887 13.6578V51.025Z" fill="#5F6262"/>
<path d="M47.5427 28.5115C47.5427 31.8746 44.7401 34.3969 41.8442 33.8363L5.13093 27.7642C2.98232 27.3905 1.20738 24.7748 1.20738 21.9723L2.42181 9.64111L47.7295 13.2844L47.5427 28.5115Z" fill="#343434"/>
<path d="M2.42181 8.80029C-1.03465 11.1357 -1.03465 25.5221 4.00992 25.5221L40.7232 31.2206C43.6191 31.6877 46.048 29.2588 46.048 25.8958C46.048 25.8958 44.927 14.9659 46.9822 13.5646L48.6637 12.8173L2.42181 8.80029Z" fill="#5F6262"/>
<path d="M27.0841 22.906L17.1818 21.5981L15.4069 28.5111L17.1818 33.6491L27.0841 35.424V22.906Z" fill="#65562D"/>
<path d="M17.1818 21.5981L15.4069 28.5111L25.3092 30.0058L27.0841 22.906L17.1818 21.5981Z" fill="#F8ECC5"/>
<path d="M17.1818 33.6497L27.0841 35.4246L25.3092 30.0064L15.4069 28.5117L17.1818 33.6497Z" fill="#BFAE6E"/>
<path d="M51.0925 9.45422L17.5555 6.46484L4.85068 7.95953L4.29017 8.05295C3.63624 8.14637 2.98232 8.42662 2.51523 8.80029L47.0756 13.658L51.7465 11.6028C55.5766 9.73447 56.0437 13.0975 56.0437 13.0975C55.4832 10.1081 52.7741 9.64105 51.0925 9.45422Z" fill="#919193"/>
<path d="M15.5937 7.58564C15.5937 3.56867 18.7699 3.38183 19.5173 3.10158C20.1712 2.91474 20.6383 2.26082 20.4515 1.70031C20.2646 1.1398 19.6107 1.04639 18.9568 1.04639C16.8082 1.04639 13.0714 1.98057 13.0714 7.58564C13.1649 8.23957 15.5937 8.23957 15.5937 7.58564Z" fill="#BFAE6E"/>
<path d="M15.1266 7.30568C15.0332 6.74517 15.0332 6.18467 15.2201 5.62416C15.3135 5.06365 15.5937 4.50314 15.9674 4.12947C16.3411 3.66238 16.9016 3.38213 17.3687 3.19529C17.9292 3.00846 18.4897 2.91504 19.0502 2.91504C18.4897 3.10187 18.0226 3.28871 17.5555 3.47555C17.0884 3.7558 16.6213 4.03605 16.3411 4.40973C15.5937 5.15707 15.3135 6.18467 15.1266 7.30568Z" fill="#65562D"/>
<path d="M38.9482 4.50306C38.8548 6.09116 37.4535 7.3056 35.8654 7.11876L18.5831 5.71749C16.995 5.62407 15.7806 4.22281 15.9674 2.6347C16.0608 1.0466 17.4621 -0.167836 19.0502 0.0189998L36.2391 1.42027C37.9206 1.51369 39.135 2.91496 38.9482 4.50306Z" fill="#5F6262"/>
<path d="M38.9482 4.50307C38.8548 5.53066 37.5469 6.18459 35.9588 5.99775L18.6765 4.59649C17.0884 4.50307 15.874 3.56889 15.9674 2.54129C16.0608 1.51369 17.3687 0.859769 18.9568 0.953187L36.1457 2.35446C37.8272 2.63471 39.0416 3.47547 38.9482 4.50307Z" fill="#343434"/>
<path d="M39.2285 10.2948C39.2285 7.8659 37.4535 6.37121 36.4259 5.90412C34.8378 5.2502 36.1457 2.44766 37.6404 3.195C39.5087 4.03577 42.031 6.65147 42.031 10.2948C42.1244 11.1355 39.2285 11.1355 39.2285 10.2948Z" fill="#BFAE6E"/>
<path d="M39.6022 10.2954C39.4153 9.17435 39.1351 8.14676 38.4811 7.30599C37.9206 6.46523 37.1733 5.62447 36.2391 5.06396C36.7996 5.15738 37.2667 5.43764 37.7338 5.81131C38.2009 6.18498 38.5746 6.55865 38.8548 7.02574C39.5087 8.05334 39.789 9.17435 39.6022 10.2954Z" fill="#65562D"/>
</svg>
