<svg width="48" height="49" viewBox="0 0 48 49" fill="none" xmlns="http://www.w3.org/2000/svg">
<path d="M43.9459 48.8461H4.05405C1.81622 48.8461 0 47.0299 0 44.792V10.1664C0 7.83123 1.89324 5.93799 4.22838 5.93799H43.7676C46.1027 5.93799 47.996 7.83123 47.996 10.1664V44.792C48 47.0299 46.1838 48.8461 43.9459 48.8461Z" fill="url(#paint0_linear_81_298)"/>
<path d="M48 19.6079H0V3.47274C0 1.68084 1.45135 0.229492 3.24324 0.229492H44.7568C46.5486 0.229492 48 1.68084 48 3.47274V19.6079Z" fill="#1E88E5"/>
<path opacity="0.2" d="M44.5216 1.41348C45.7703 1.41348 46.7838 2.427 46.7838 3.67564V44.4675C46.7838 46.1946 45.3811 47.5973 43.6541 47.5973H4.34595C2.61892 47.5973 1.21622 46.1946 1.21622 44.4675V3.67564C1.21622 2.427 2.22973 1.41348 3.47838 1.41348H44.5216ZM44.5216 0.197266H3.47838C1.55676 0.197266 0 1.75402 0 3.67564V44.4675C0 46.8675 1.94595 48.8135 4.34595 48.8135H43.6541C46.0541 48.8135 48 46.8675 48 44.4675V3.67564C48 1.75402 46.4432 0.197266 44.5216 0.197266Z" fill="#424242"/>
<path d="M32.1933 32.9582H31.0622C30.8027 32.9582 30.5878 32.7474 30.5878 32.4839V31.4177C30.5878 31.1582 30.7987 30.9434 31.0622 30.9434H32.1933C32.4527 30.9434 32.6676 31.1542 32.6676 31.4177V32.4839C32.6676 32.7434 32.4568 32.9582 32.1933 32.9582Z" fill="#9E9E9E"/>
<path d="M37.8527 32.9582H36.7216C36.4621 32.9582 36.2473 32.7474 36.2473 32.4839V31.4177C36.2473 31.1582 36.4581 30.9434 36.7216 30.9434H37.8527C38.1121 30.9434 38.327 31.1542 38.327 31.4177V32.4839C38.327 32.7434 38.1121 32.9582 37.8527 32.9582Z" fill="#9E9E9E"/>
<path d="M43.5122 32.9582H42.3811C42.1216 32.9582 41.9068 32.7474 41.9068 32.4839V31.4177C41.9068 31.1582 42.1176 30.9434 42.3811 30.9434H43.5122C43.7716 30.9434 43.9865 31.1542 43.9865 31.4177V32.4839C43.9824 32.7434 43.7716 32.9582 43.5122 32.9582Z" fill="#9E9E9E"/>
<path d="M32.1933 37.9572H31.0622C30.8027 37.9572 30.5878 37.7464 30.5878 37.4829V36.4167C30.5878 36.1572 30.7987 35.9424 31.0622 35.9424H32.1933C32.4527 35.9424 32.6676 36.1532 32.6676 36.4167V37.4829C32.6676 37.7424 32.4568 37.9572 32.1933 37.9572Z" fill="#9E9E9E"/>
<path d="M37.8527 37.9572H36.7216C36.4621 37.9572 36.2473 37.7464 36.2473 37.4829V36.4167C36.2473 36.1572 36.4581 35.9424 36.7216 35.9424H37.8527C38.1121 35.9424 38.327 36.1532 38.327 36.4167V37.4829C38.327 37.7424 38.1121 37.9572 37.8527 37.9572Z" fill="#9E9E9E"/>
<path d="M43.5122 37.9572H42.3811C42.1216 37.9572 41.9068 37.7464 41.9068 37.4829V36.4167C41.9068 36.1572 42.1176 35.9424 42.3811 35.9424H43.5122C43.7716 35.9424 43.9865 36.1532 43.9865 36.4167V37.4829C43.9824 37.7424 43.7716 37.9572 43.5122 37.9572Z" fill="#9E9E9E"/>
<path d="M32.1933 42.9558H31.0622C30.8027 42.9558 30.5878 42.745 30.5878 42.4815V41.4152C30.5878 41.1558 30.7987 40.9409 31.0622 40.9409H32.1933C32.4527 40.9409 32.6676 41.1517 32.6676 41.4152V42.4815C32.6676 42.7409 32.4568 42.9558 32.1933 42.9558Z" fill="#9E9E9E"/>
<path d="M37.8527 42.9558H36.7216C36.4621 42.9558 36.2473 42.745 36.2473 42.4815V41.4152C36.2473 41.1558 36.4581 40.9409 36.7216 40.9409H37.8527C38.1121 40.9409 38.327 41.1517 38.327 41.4152V42.4815C38.327 42.7409 38.1121 42.9558 37.8527 42.9558Z" fill="#9E9E9E"/>
<path d="M43.5122 42.9558H42.3811C42.1216 42.9558 41.9068 42.745 41.9068 42.4815V41.4152C41.9068 41.1558 42.1176 40.9409 42.3811 40.9409H43.5122C43.7716 40.9409 43.9865 41.1517 43.9865 41.4152V42.4815C43.9824 42.7409 43.7716 42.9558 43.5122 42.9558Z" fill="#9E9E9E"/>
<path d="M16.2487 5.58887H17.923V11.2118C17.923 11.7308 17.8095 12.1848 17.5784 12.5821C17.3473 12.9794 17.027 13.2835 16.6095 13.4983C16.1919 13.7132 15.7216 13.8227 15.1987 13.8227C14.3392 13.8227 13.6703 13.6037 13.1878 13.1659C12.7095 12.7281 12.4662 12.1118 12.4662 11.3091H14.1527C14.1527 11.7064 14.2378 12.0024 14.4041 12.1889C14.5703 12.3794 14.8338 12.4727 15.1946 12.4727C15.5149 12.4727 15.7703 12.3632 15.9608 12.1443C16.1514 11.9254 16.2446 11.6132 16.2446 11.2078V5.58887H16.2487Z" fill="white"/>
<path d="M22.8649 13.1016C22.4676 13.584 21.9162 13.8272 21.2149 13.8272C20.5662 13.8272 20.0757 13.6408 19.7351 13.2678C19.3946 12.8948 19.2203 12.3516 19.2122 11.634V7.67725H20.8257V11.5813C20.8257 12.2097 21.1135 12.5259 21.6851 12.5259C22.2324 12.5259 22.6095 12.3354 22.8122 11.9543V7.67725H24.4297V13.7137H22.9135L22.8649 13.1016Z" fill="white"/>
<path d="M27.3487 13.7133H25.7311V5.14307H27.3487V13.7133Z" fill="white"/>
<path d="M30.9284 11.4313L32.0433 7.67725H33.7743L31.346 14.6543L31.2122 14.9705C30.8514 15.761 30.2554 16.1543 29.4284 16.1543C29.1933 16.1543 28.9541 16.1178 28.7149 16.0489V14.8286L28.9622 14.8327C29.2662 14.8327 29.4933 14.784 29.6473 14.6948C29.7973 14.6016 29.9149 14.4475 30 14.2327L30.1906 13.734L28.0743 7.6813H29.8095L30.9284 11.4313Z" fill="white"/>
<path d="M12.1703 43.389H9.14595V31.7174L5.53784 32.8323V30.3958L11.846 28.1377H12.1703V43.389Z" fill="#2F2F2F"/>
<path d="M27.4743 29.8442L21.5838 43.3888H18.3933L24.296 30.5942H16.7189V28.1577H27.4743V29.8442Z" fill="#2F2F2F"/>
<defs>
<linearGradient id="paint0_linear_81_298" x1="24" y1="19.5081" x2="24" y2="48.7488" gradientUnits="userSpaceOnUse">
<stop stop-color="white"/>
<stop offset="1" stop-color="#C8C9CA"/>
</linearGradient>
</defs>
</svg>
