<svg width="32" height="33" viewBox="0 0 32 33" fill="none" xmlns="http://www.w3.org/2000/svg">
<path d="M0 12.4735C0 9.49561 -9.41126e-08 8.00824 0.925263 7.08298C1.85053 6.15771 3.33789 6.15771 6.31579 6.15771H25.2632C28.2411 6.15771 29.7284 6.15771 30.6537 7.08298C31.5789 8.00824 31.5789 9.49561 31.5789 12.4735C31.5789 13.2172 31.5789 13.5898 31.3484 13.8219C31.1163 14.0525 30.7421 14.0525 30 14.0525H1.57895C0.835263 14.0525 0.462631 14.0525 0.230526 13.8219C-1.41169e-07 13.5898 0 13.2156 0 12.4735ZM0 26.684C0 29.6619 -9.41126e-08 31.1493 0.925263 32.0746C1.85053 32.9998 3.33789 32.9998 6.31579 32.9998H25.2632C28.2411 32.9998 29.7284 32.9998 30.6537 32.0746C31.5789 31.1493 31.5789 29.6619 31.5789 26.684V18.7893C31.5789 18.0456 31.5789 17.673 31.3484 17.4409C31.1163 17.2103 30.7421 17.2103 30 17.2103H1.57895C0.835263 17.2103 0.462631 17.2103 0.230526 17.4409C-1.41169e-07 17.673 0 18.0472 0 18.7893V26.684Z" fill="#0B0932"/>
<path d="M7.89453 3V7.73684M23.684 3V7.73684" stroke="#0B0932" stroke-width="5" stroke-linecap="round"/>
</svg>
