<svg width="30" height="39" viewBox="0 0 30 39" fill="none" xmlns="http://www.w3.org/2000/svg">
<path d="M3.75 4.3H0V0.5H30V4.3H26.25V8.1C26.25 11.1685 24.72 13.6385 22.7925 15.6563C21.4744 17.0357 19.8713 18.3068 18.2456 19.5C19.8713 20.6932 21.4744 21.9643 22.7925 23.3437C24.72 25.3615 26.25 27.8315 26.25 30.9V34.7H30V38.5H0V34.7H3.75V30.9C3.75 27.8315 5.28 25.3615 7.2075 23.3437C8.52563 21.9643 10.1287 20.6932 11.7544 19.5C10.1287 18.3068 8.52563 17.0357 7.2075 15.6563C5.28 13.6385 3.75 11.1685 3.75 8.1V4.3ZM7.5 4.3V8.1C7.5 9.4015 7.9875 10.6365 8.94563 11.9H21.0544C22.0106 10.6365 22.5 9.4015 22.5 8.1V4.3H7.5ZM15 21.8218C13.0406 23.224 11.265 24.5597 9.90188 25.9866C9.56303 26.3395 9.24379 26.7112 8.94563 27.1H21.0544C20.7562 26.7112 20.437 26.3395 20.0981 25.9866C18.735 24.5597 16.9594 23.224 15 21.8218Z" fill="#0B0932"/>
</svg>
