<svg width="49" height="66" viewBox="0 0 49 66" fill="none" xmlns="http://www.w3.org/2000/svg">
<path d="M29.4408 34.2289C27.8108 33.7196 26.7921 33.5158 26.7921 32.599C26.7921 31.784 27.8108 31.5803 29.4408 30.969C38.3035 28.5241 40.8503 22.1063 40.8503 11.2061H8.04782C8.04782 22.1063 10.5946 28.5241 19.4574 30.969C21.0873 31.4784 22.106 31.6821 22.106 32.599C22.106 33.5158 21.0873 33.6177 19.4574 34.2289C10.5946 36.6738 8.04782 43.0917 8.04782 53.9919H40.8503C40.8503 43.0917 38.3035 36.6738 29.4408 34.2289Z" fill="#E5E5E5"/>
<path d="M28.0145 34.2289C26.7921 33.7196 26.079 33.5158 26.079 32.599C26.079 31.784 26.7921 31.5803 28.0145 30.969C34.4324 28.4223 35.0437 22.0044 35.0437 11.2061H13.8545C13.8545 22.1063 14.4657 28.5241 20.8836 30.969C22.106 31.4784 22.8191 31.6821 22.8191 32.599C22.8191 33.5158 22.106 33.6177 20.8836 34.2289C14.4657 36.7757 13.8545 43.1936 13.8545 53.9919H35.1455C35.0436 43.0917 34.4324 36.6738 28.0145 34.2289Z" fill="#F5F5F5"/>
<path d="M25.3659 53.9918C25.3659 53.9918 24.7547 35.7568 24.7547 32.5988C24.7547 31.7839 26.3846 30.5614 27.0977 30.1539C30.2557 28.3203 34.2287 24.7548 34.2287 21.0874H14.5676C14.5676 24.8566 18.6424 28.4221 21.6985 30.1539C22.4116 30.5614 24.0416 31.7839 24.0416 32.5988C24.0416 35.8587 23.4304 53.9918 23.4304 53.9918H25.3659Z" fill="#428BC1"/>
<path d="M48.8981 63.16C48.8981 64.2805 48.0832 65.1974 46.9626 65.1974H1.93555C0.91684 65.1974 0 64.2805 0 63.16V60.1038C0 58.9832 0.814968 58.0664 1.93555 58.0664H47.0645C48.0832 58.0664 49 58.9832 49 60.1038L48.8981 63.16ZM42.7859 10.3907C42.7859 10.7982 42.3784 11.2057 41.869 11.2057H7.02911C6.51975 11.2057 6.11227 10.7982 6.11227 10.3907V7.94583C6.11227 7.53834 6.51975 7.13086 7.02911 7.13086H41.869C42.3784 7.13086 42.7859 7.53834 42.7859 7.94583V10.3907Z" fill="#212528"/>
<path d="M37.6923 10.3907C37.6923 10.7982 37.3867 11.2057 36.9792 11.2057H11.9189C11.5114 11.2057 11.2058 10.7982 11.2058 10.3907V7.94583C11.2058 7.53834 11.5114 7.13086 11.9189 7.13086H36.9792C37.3867 7.13086 37.6923 7.53834 37.6923 7.94583V10.3907Z" fill="#51575B"/>
<path d="M42.7859 57.2516C42.7859 57.659 42.3784 58.0665 41.869 58.0665H7.02911C6.51975 58.0665 6.11227 57.659 6.11227 57.2516V54.8066C6.11227 54.3992 6.51975 53.9917 7.02911 53.9917H41.869C42.3784 53.9917 42.7859 54.3992 42.7859 54.8066V57.2516ZM48.8981 5.09355C48.8981 6.21414 48.0832 7.13098 46.9626 7.13098H1.93555C0.814968 7.13098 0 6.21414 0 5.09355V2.03742C0 0.91684 0.814968 0 1.93555 0H47.0645C48.0832 0 49 0.91684 49 2.03742L48.8981 5.09355Z" fill="#212528"/>
<path d="M42.7859 5.09356C42.7859 6.21414 42.0728 7.13098 41.2578 7.13098H7.64033C6.82536 7.13098 6.11226 6.21414 6.11226 5.09356V2.03742C6.11226 0.91684 6.82536 0 7.64033 0H41.3597C42.0728 0 42.7859 0.91684 42.7859 2.03742V5.09356ZM42.7859 63.1601C42.7859 64.2807 42.0728 65.1975 41.2578 65.1975H7.64033C6.82536 65.1975 6.11226 64.2807 6.11226 63.1601V60.104C6.11226 58.9834 6.82536 58.0665 7.64033 58.0665H41.3597C42.1746 58.0665 42.8877 58.9834 42.8877 60.104C42.7859 60.104 42.7859 63.1601 42.7859 63.1601Z" fill="#51575B"/>
<path d="M4.07484 7.13086H5.09356V58.0664H4.07484V7.13086Z" fill="#919191"/>
<path d="M3.05614 7.13086H4.07485V58.0664H3.05614V7.13086Z" fill="#CECECE"/>
<path d="M44.8233 7.13086H45.842V58.0664H44.8233V7.13086Z" fill="#919191"/>
<path d="M43.8046 7.13086H44.8233V58.0664H43.8046V7.13086Z" fill="#CECECE"/>
<path d="M37.6923 57.2516C37.6923 57.6591 37.3867 58.0665 36.9792 58.0665H11.9189C11.5114 58.0665 11.2058 57.6591 11.2058 57.2516V54.8067C11.2058 54.3992 11.5114 53.9917 11.9189 53.9917H36.9792C37.3867 53.9917 37.6923 54.3992 37.6923 54.8067V57.2516Z" fill="#51575B"/>
</svg>
