<svg width="71" height="71" viewBox="0 0 71 71" fill="none" xmlns="http://www.w3.org/2000/svg">
<circle cx="35.5" cy="36.5" r="34.5" fill="#F3F3F3"/>
<mask id="mask0_81_120" style="mask-type:alpha" maskUnits="userSpaceOnUse" x="0" y="0" width="71" height="71">
<circle cx="35.5" cy="35.5" r="35.5" fill="white"/>
</mask>
<g mask="url(#mask0_81_120)">
<path d="M31.0646 50.7295C31.0646 50.7295 35.7547 43.9996 35.4174 41.4056C35.0801 38.8036 34.1726 38.2414 31.5706 37.3339C28.9686 36.4264 27.4427 35.013 27.4427 35.013C27.4427 35.013 25.5555 26.1549 25.7482 25.0627C25.9731 23.7617 30.6631 15 41.802 15C52.5393 15 56.9482 24.0107 56.3861 30.9413C55.8801 37.2135 53.5592 38.9722 51.9209 44.1682C50.2826 49.3722 49.4875 52.4802 49.4875 52.4802L39.8183 54.4558L31.7312 52.7051L31.0646 50.7295Z" fill="#1E1E1E"/>
<path d="M81.5148 55.4195C81.5148 55.4195 85.3697 54.6646 85.3857 52.0465C85.3938 49.4285 83.9884 50.5688 83.9723 48.6655C83.9562 46.7622 87.3774 46.3125 89.626 47.9106C91.4009 49.1715 95.4565 53.2753 95.2316 61.796C94.9264 73.3686 88.8711 81.8331 79.3385 87.0693C71.5646 91.3337 60.0964 90.8277 60.0964 90.8277L81.5148 55.4195Z" fill="#5E6367"/>
<path d="M71.0827 56.3832C72.9699 56.1584 81.2498 53.5403 84.1971 54.2952C87.7548 55.2027 91.3045 57.7083 90.5817 65.6589C89.6501 75.9786 82.3179 82.2668 79.1618 83.9934C73.516 87.0773 68.0872 87.1496 68.0872 87.1496C68.0872 87.1496 69.2034 56.6081 71.0827 56.3832Z" fill="#B0B0B1"/>
<path d="M8 31.7926C8 32.7563 13.991 35.5831 19.6448 36.2577C25.2986 36.9323 28.8 36.0329 28.8 36.0329C28.8 36.0329 27.8363 33.5995 27.8363 31.7926C27.8363 29.9856 28.7679 25.4481 27.3304 24.3881C26.0294 23.4244 24.9532 25.408 24.1662 25.9702C23.3711 26.5323 21.1145 28.1144 17.605 28.2349C14.0955 28.3553 11.0437 27.7851 9.80695 28.4597C8.57019 29.1343 8 30.7726 8 31.7926Z" fill="#FFBF18"/>
<path d="M42.5971 28.3393C42.2598 29.7448 41.3042 30.845 39.433 30.5478C37.6822 30.2668 36.8309 28.4598 37.3449 26.701C37.7465 25.3117 38.7825 24.3721 40.5332 24.6692C42.5409 25.0065 42.9184 26.9821 42.5971 28.3393Z" fill="white"/>
<path d="M28.9124 53.0986C28.9124 53.0986 30.647 60.6717 39.3124 59.3948C45.5042 58.4793 50.0898 55.4035 50.0898 55.4035L50.1621 50.352C50.1621 50.352 46.0503 52.7613 41.1193 52.689C35.9956 52.6168 31.5465 49.9746 31.5465 49.9746L28.9124 53.0986Z" fill="white"/>
<path d="M23.1863 67.1606C22.584 83.5838 34.9676 91.3899 54.6192 91.7271C76.399 92.1046 84.8234 79.3274 86.1244 71.3046C87.4817 62.9123 82.0528 61.1294 82.0528 61.1294C82.0528 61.1294 87.4817 58.8647 85.0483 53.5001C83.9159 53.2752 78.3425 54.7609 67.7497 53.6687C57.2293 52.5846 50.0175 54.4236 50.0175 54.4236C50.0175 54.4236 47.3834 57.2907 39.8424 56.9132C30.8076 56.4635 29.0649 52.9219 29.0649 52.9219C29.0649 52.9219 23.5638 56.9453 23.1863 67.1606Z" fill="#1E1E1E"/>
<path d="M44.0668 70.3971C45.8979 76.7415 52.435 80.5723 62.1524 80.1225C70.9703 79.7129 77.379 73.5613 78.431 68.1404C79.5795 62.2457 77.1862 59.9971 77.1862 59.9971C77.1862 59.9971 82.2778 58.15 82.2778 54.5682C79.4108 52.8335 70.2957 51.6289 60.1929 51.2514C53.6397 51.0105 49.9454 53.4359 49.9454 53.4359C49.9454 53.4359 40.6698 58.6399 44.0668 70.3971Z" fill="#1E1E1E"/>
</g>
</svg>
