<svg width="41" height="42" viewBox="0 0 41 42" fill="none" xmlns="http://www.w3.org/2000/svg">
<circle cx="20.5" cy="21" r="20.5" fill="#D9D9D9"/>
<path d="M15.2 21C17.5213 21 19.4 19.1408 19.4 16.8438C19.4 14.5467 17.5213 12.6875 15.2 12.6875C12.8788 12.6875 11 14.5467 11 16.8438C11 19.1408 12.8788 21 15.2 21ZM18.08 22.1875H17.7688C16.9888 22.5586 16.1225 22.7812 15.2 22.7812C14.2775 22.7812 13.415 22.5586 12.6313 22.1875H12.32C9.935 22.1875 8 24.1023 8 26.4625V27.5312C8 28.5146 8.80625 29.3125 9.8 29.3125H20.6C21.5938 29.3125 22.4 28.5146 22.4 27.5312V26.4625C22.4 24.1023 20.465 22.1875 18.08 22.1875ZM26 21C27.9875 21 29.6 19.4043 29.6 17.4375C29.6 15.4707 27.9875 13.875 26 13.875C24.0125 13.875 22.4 15.4707 22.4 17.4375C22.4 19.4043 24.0125 21 26 21ZM27.8 22.1875H27.6575C27.1363 22.3656 26.585 22.4844 26 22.4844C25.415 22.4844 24.8638 22.3656 24.3425 22.1875H24.2C23.435 22.1875 22.73 22.4064 22.1112 22.759C23.0262 23.735 23.6 25.0301 23.6 26.4625V27.8875C23.6 27.9691 23.5813 28.0471 23.5775 28.125H30.2C31.1938 28.125 32 27.3271 32 26.3438C32 24.0467 30.1213 22.1875 27.8 22.1875Z" fill="#160B4D"/>
</svg>
